<svg xmlns="http://www.w3.org/2000/svg" id="Bot" viewBox="0 0 250 225"><style>@-webkit-keyframes kf_RightEyeGroup{0%,44.44%,55.56%,to{-webkit-transform:translate(166.81699657440186px,124.5609998703003px) scale(1,1) translate(-166.81699657440186px,-124.5609998703003px);transform:translate(166.81699657440186px,124.5609998703003px) scale(1,1) translate(-166.81699657440186px,-124.5609998703003px)}50%{-webkit-transform:translate(166.81699657440186px,124.5609998703003px) scale(0,0) translate(-166.81699657440186px,-124.5609998703003px);transform:translate(166.81699657440186px,124.5609998703003px) scale(0,0) translate(-166.81699657440186px,-124.5609998703003px)}}@keyframes kf_RightEyeGroup{0%,44.44%,55.56%,to{-webkit-transform:translate(166.81699657440186px,124.5609998703003px) scale(1,1) translate(-166.81699657440186px,-124.5609998703003px);transform:translate(166.81699657440186px,124.5609998703003px) scale(1,1) translate(-166.81699657440186px,-124.5609998703003px)}50%{-webkit-transform:translate(166.81699657440186px,124.5609998703003px) scale(0,0) translate(-166.81699657440186px,-124.5609998703003px);transform:translate(166.81699657440186px,124.5609998703003px) scale(0,0) translate(-166.81699657440186px,-124.5609998703003px)}}@-webkit-keyframes kf_LeftEyeGroup{0%,44.44%,55.56%,to{-webkit-transform:translate(83.23300457000732px,124.5609998703003px) scale(1,1) translate(-83.23300457000732px,-124.5609998703003px);transform:translate(83.23300457000732px,124.5609998703003px) scale(1,1) translate(-83.23300457000732px,-124.5609998703003px)}50%{-webkit-transform:translate(83.23300457000732px,124.5609998703003px) scale(0,0) translate(-83.23300457000732px,-124.5609998703003px);transform:translate(83.23300457000732px,124.5609998703003px) scale(0,0) translate(-83.23300457000732px,-124.5609998703003px)}}@keyframes kf_LeftEyeGroup{0%,44.44%,55.56%,to{-webkit-transform:translate(83.23300457000732px,124.5609998703003px) scale(1,1) translate(-83.23300457000732px,-124.5609998703003px);transform:translate(83.23300457000732px,124.5609998703003px) scale(1,1) translate(-83.23300457000732px,-124.5609998703003px)}50%{-webkit-transform:translate(83.23300457000732px,124.5609998703003px) scale(0,0) translate(-83.23300457000732px,-124.5609998703003px);transform:translate(83.23300457000732px,124.5609998703003px) scale(0,0) translate(-83.23300457000732px,-124.5609998703003px)}}#Bot *{-webkit-animation-duration:3s;animation-duration:3s;-webkit-animation-iteration-count:infinite;animation-iteration-count:infinite;-webkit-animation-timing-function:cubic-bezier(0,0,1,1);animation-timing-function:cubic-bezier(0,0,1,1)}#LeftAntenna,#LeftEar,#RightAntenna,#RightEar{fill:#b0c1c7}#Face{fill:#70c1ff}#FaceDisplay{fill:#137ad3}#LeftEyeBG,#RightEyeBG{fill:#70c1ff}#LeftEye,#Mouth1,#Mouth2,#Mouth3,#Mouth4,#Mouth5,#RightEye{fill:#fff}#LeftEyeGroup,#RightEyeGroup{-webkit-animation-fill-mode:backwards;animation-fill-mode:backwards;-webkit-transform:translate(83.23300457000732px,124.5609998703003px) scale(1,1) translate(-83.23300457000732px,-124.5609998703003px);transform:translate(83.23300457000732px,124.5609998703003px) scale(1,1) translate(-83.23300457000732px,-124.5609998703003px);-webkit-animation-name:kf_LeftEyeGroup;animation-name:kf_LeftEyeGroup;-webkit-animation-timing-function:cubic-bezier(0,0,1,1);animation-timing-function:cubic-bezier(0,0,1,1)}#RightEyeGroup{-webkit-transform:translate(166.81699657440186px,124.5609998703003px) scale(1,1) translate(-166.81699657440186px,-124.5609998703003px);transform:translate(166.81699657440186px,124.5609998703003px) scale(1,1) translate(-166.81699657440186px,-124.5609998703003px);-webkit-animation-name:kf_RightEyeGroup;animation-name:kf_RightEyeGroup}</style><g id="Body"><path id="LeftAntenna" d="M91.101 49.289c-1.625.4-3.2.8-4.774 1.225L73.278 3.295c-.35-1.325.4-2.65 1.725-3.05 1.325-.35 2.65.4 3 1.725l13.098 47.319z"/><path id="RightAntenna" d="M176.69 3.295l-13.198 47.619c-1.575-.45-3.15-.875-4.774-1.275L171.966 1.92c.35-1.325 1.725-2.075 3.05-1.725 1.274.425 2.074 1.775 1.674 3.1z"/><path id="LeftEar" d="M15.11 163.925c-1.475 1.975-3.05 3.05-4.774 3.05C4.311 166.9-.263 152.602.012 135.104s5.424-31.596 11.399-31.496c1.675.05 3.2 1.125 4.524 3.1-3.9 8.924-6.074 18.473-6.249 28.447a75.081 75.081 0 0 0 5.424 28.77z"/><path id="RightEar" d="M249.981 139.153c-.3 17.498-5.424 31.646-11.424 31.496-1.625-.05-3.2-1.125-4.574-3.05 3.9-8.924 6.074-18.473 6.249-28.447.2-10.049-1.725-19.773-5.324-28.846 1.475-1.975 3.05-3.05 4.774-3.05 6 .101 10.649 14.399 10.299 31.897z"/><path id="Face" d="M126.596 49.339C65.379 48.239 15.06 86.685 14.21 135.154s48.069 88.614 109.287 89.714 111.561-37.37 112.386-85.815c.85-48.469-48.119-88.639-109.287-89.714zm82.515 106.412c-.3 15.923-13.448 28.597-29.321 28.297l-111.162-1.975c-15.873-.3-28.572-13.448-28.347-29.321l.6-34.296c.3-15.873 13.448-28.597 29.321-28.297l111.162 1.975c15.923.3 28.597 13.448 28.297 29.321l-.55 34.296z"/><path id="FaceDisplay" d="M205.612 121.355c.25-13.648-10.599-24.897-24.247-25.147L70.203 94.234c-13.648-.25-24.897 10.649-25.147 24.247l-.6 34.296c-.25 13.648 10.599 24.897 24.247 25.147l111.162 1.975c13.648.25 24.897-10.649 25.147-24.247l.6-34.297z"/><circle id="RightEyeBG" cx="166.817" cy="124.561" r="20"/><circle id="LeftEyeBG" cx="83.233" cy="124.561" r="20"/></g><path id="Mouth1" d="M96.75 154.64h10.671v10.671H96.75z"/><path id="Mouth2" d="M107.385 154.64h10.671v10.671h-10.671z"/><path id="Mouth3" d="M118.056 154.64h10.671v10.671h-10.671z"/><path id="Mouth4" d="M128.727 154.64h10.671v10.671h-10.671z"/><path id="Mouth5" d="M139.398 154.64h10.671v10.671h-10.671z"/><g id="LeftEyeGroup" data-animator-group="true" data-animator-type="2"><circle id="LeftEye" cx="83.233" cy="124.561" r="12.505"/></g><g id="RightEyeGroup" data-animator-group="true" data-animator-type="2"><circle id="RightEye" cx="166.817" cy="124.561" r="12.505"/></g></svg>